<svg xmlns="http://www.w3.org/2000/svg" viewBox="0 0 512 512" xml:space="preserve">
    <path style="fill:#ffe76d"
        d="M453.996 93.719H58.004C21.754 137.887 0 194.401 0 256c0 141.38 114.62 256 256 256s256-114.62 256-256c0-61.599-21.754-118.113-58.004-162.281" />
    <path style="fill:#ffd608"
        d="M256 0c79.781 0 151.051 36.5 197.996 93.719-36.329 24.769-60.177 66.48-60.177 113.766v49.027c0 76.117-61.702 137.819-137.819 137.819s-137.819-61.702-137.819-137.819v-49.027c0-47.286-23.848-88.997-60.177-113.766C104.949 36.5 176.219 0 256 0" />
    <circle r="240" cx="50%" cy="50%" fill="none" stroke="#000" stroke-width="30" />
</svg>